<?xml version="1.0"?>
<svg xmlns="http://www.w3.org/2000/svg" xmlns:xlink="http://www.w3.org/1999/xlink" version="1.1" id="Capa_1" x="0px" y="0px" viewBox="0 0 211.077 211.077" style="enable-background:new 0 0 211.077 211.077;" xml:space="preserve" width="512px" height="512px"><g><path d="M105.471,211.077c-37.511,0-68.028-30.517-68.028-68.027v-0.988h-1.487c-11.568,0-20.979-9.411-20.979-20.979v-9.606  c0-11.568,9.411-20.979,20.979-20.979h1.487V59.58c0-11.852,5.485-23.119,14.753-30.465c-0.332-1.606-0.506-3.262-0.506-4.943  c0-4.319,2.3-8.756,6.152-11.868c0.039-0.031,0.078-0.061,0.119-0.09l2.334-1.666c0.083-0.059,0.169-0.113,0.258-0.161  c0.364-0.198,0.776-0.446,1.248-0.729C64,8.338,67.323,6.344,72.817,4.669l0,0c7.604-2.491,15.59-3.942,24.416-4.437  c33.868-1.903,64.046,8.073,73.366,24.258c1.192,1.923,2.003,3.406,2.793,5.105c7.617,16.383,1.424,33.581,0.106,36.86v24.042h1.624  c11.567,0,20.979,9.411,20.979,20.979v9.606c0,11.568-9.411,20.979-20.979,20.979h-1.624v0.988  C173.498,180.56,142.982,211.077,105.471,211.077z M42.443,139.562v3.488c0,34.753,28.274,63.027,63.027,63.027  c34.754,0,63.028-28.274,63.028-63.027v-21.191h-4.43c-0.668,0-1.309-0.267-1.777-0.742c-0.47-0.475-0.73-1.118-0.723-1.786  c0.004-0.29,0.304-29.082-1.926-37.996c-2.013-8.056-7.762-11.271-8.005-11.405c-0.597-0.325-1.041-0.882-1.221-1.536  c-0.18-0.655-0.092-1.357,0.254-1.941c0.033-0.055,3.432-5.877,3.581-11.458c0.023-0.883-3.675-3.055-8.524-4.4  c-5.31-1.105-9.356-1.033-9.459-1.034c-0.021,0-0.042,0.001-0.063,0.001h-52c-7.52,0-14.018-1.292-19.313-3.841  c-0.886-0.426-1.739-0.908-2.555-1.44c-2.335,2.7-5.657,7.304-5.648,10.775c0.014,5.526,3.522,11.304,3.559,11.362  c0.361,0.588,0.464,1.301,0.282,1.967s-0.63,1.229-1.24,1.552c-0.23,0.126-5.979,3.342-7.992,11.398  c-2.23,8.917-1.93,37.706-1.926,37.996c0.008,0.668-0.253,1.311-0.723,1.786c-0.469,0.475-1.109,0.742-1.777,0.742h-4.43V139.562z   M173.635,137.062h1.487c8.811,0,15.979-7.168,15.979-15.979v-9.606c0-8.811-7.168-15.979-15.979-15.979h-1.487V137.062z   M35.955,95.497c-8.812,0-15.979,7.168-15.979,15.979v9.606c0,8.811,7.168,15.979,15.979,15.979h1.487V95.497H35.955z   M166.585,116.859h1.913V66.593c-2.177-4.749-5.541-8.176-9.287-10.647c-0.299,4.373-1.99,8.562-3.146,10.972  c2.525,1.973,6.663,6.137,8.43,13.204C166.494,88.117,166.608,109.46,166.585,116.859z M42.443,116.859h1.913  c-0.022-7.398,0.092-28.741,2.091-36.737c1.761-7.043,5.877-11.204,8.404-13.185c-1.272-2.577-3.149-7.171-3.161-11.87  c-0.013-5.307,4.22-11.004,6.778-13.963c-1.924-1.964-3.501-4.273-4.648-6.826C46.643,40.67,42.443,49.902,42.443,59.58V116.859z   M136.652,44.478c3.392,0,23.563,0.638,33.742,15.311c0.354-1.348,0.71-2.915,1.002-4.646c-2.934-2.858-13.531-12.211-29.298-15.208  c-11.023-2.096-24.041-1.283-36.633-0.499c-9.361,0.584-19.042,1.189-27.616,0.536c-8.313-0.631-14.076-2.801-18.019-5.227  c1.809,2.758,4.322,5.016,7.343,6.451c4.593,2.182,10.319,3.288,17.022,3.288h52C136.26,44.481,136.415,44.478,136.652,44.478z   M125.357,33.6c6.125,0,12.095,0.361,17.675,1.422c13.856,2.634,23.881,9.605,29.016,13.949c0.089-2.201,0.025-4.528-0.272-6.915  c-6.969-6.976-19.329-11.841-35.824-14.089c-8.732-1.19-18.694,0.164-29.239,1.599c-10.627,1.445-21.615,2.94-31.499,1.64  c-10.966-1.443-15.992-5.392-18.281-8.933c-0.158,0.638-0.241,1.274-0.241,1.898c0,0.236,0.004,0.47,0.013,0.705  c0.813,1.573,5.431,8.886,21.525,10.109c8.231,0.625,17.313,0.06,26.926-0.541C111.87,34.026,118.704,33.6,125.357,33.6z   M128.719,22.52c2.713,0,5.359,0.146,7.907,0.493c13.973,1.904,25.27,5.677,33.214,11.041c-0.293-0.786-0.62-1.57-0.982-2.351  c-0.707-1.521-1.442-2.861-2.537-4.626c-0.023-0.038-0.046-0.076-0.067-0.115c-8.298-14.368-37.183-23.509-68.741-21.738  c-8.4,0.471-15.98,1.848-23.176,4.208c-0.029,0.009-0.059,0.019-0.088,0.027c-4.891,1.495-7.89,3.294-9.875,4.485  c-0.482,0.289-0.91,0.545-1.293,0.758l-2.151,1.536c-0.292,0.239-0.572,0.489-0.84,0.749c0.314,1.97,2.398,7.502,15.775,9.262  c9.224,1.214,19.873-0.236,30.173-1.637C113.63,23.579,121.412,22.52,128.719,22.52z M96.87,166.039  c-4.721,0-7.893-0.306-8.313-0.348c-1.373-0.14-2.372-1.367-2.232-2.74c0.139-1.373,1.357-2.376,2.739-2.235  c0.325,0.032,32.501,3.094,48.527-11.53c-0.703-0.581-1.504-1.057-2.385-1.402c-1.285-0.504-1.918-1.955-1.414-3.24  c0.505-1.285,1.954-1.917,3.24-1.415c4.809,1.886,8.12,6.25,8.642,11.388l0.058,0.56c0.141,1.374-0.859,2.601-2.232,2.742  c-1.381,0.138-2.602-0.859-2.742-2.232l-0.058-0.563c-0.057-0.558-0.165-1.102-0.32-1.625  C127.856,164.33,108.035,166.039,96.87,166.039z M83.053,124.199c-8.398,0-15.231-6.833-15.231-15.231  c0-8.399,6.833-15.232,15.231-15.232s15.231,6.833,15.231,15.232C98.285,117.366,91.452,124.199,83.053,124.199z M83.053,98.736  c-5.642,0-10.231,4.59-10.231,10.232c0,5.642,4.59,10.231,10.231,10.231s10.231-4.59,10.231-10.231  C93.285,103.326,88.695,98.736,83.053,98.736z M144.892,112.278c-0.998,0-1.938-0.601-2.326-1.582  c-0.111-0.269-2.434-5.596-10.85-5.596c-8.541,0-11.153,5.359-11.261,5.587c-0.581,1.239-2.061,1.795-3.305,1.227  c-1.246-0.567-1.811-2.018-1.258-3.271c0.154-0.349,3.907-8.543,15.823-8.543c12.006,0,15.372,8.424,15.51,8.783  c0.493,1.29-0.151,2.735-1.44,3.229C145.492,112.224,145.189,112.278,144.892,112.278z M83.053,111.718c-1.381,0-2.5-1.119-2.5-2.5  v-0.25c0-1.381,1.119-2.5,2.5-2.5s2.5,1.119,2.5,2.5v0.25C85.553,110.598,84.434,111.718,83.053,111.718z M140.796,86.938  c-0.333,0-0.671-0.066-0.995-0.208l-18.523-8.047c-1.267-0.55-1.847-2.022-1.297-3.289c0.551-1.266,2.027-1.847,3.289-1.297  l18.523,8.047c1.267,0.55,1.847,2.022,1.297,3.289C142.681,86.375,141.761,86.938,140.796,86.938z M70.324,84.074  c-0.851,0-1.68-0.434-2.147-1.217c-0.709-1.185-0.322-2.72,0.862-3.429l17.333-10.366c1.187-0.708,2.722-0.323,3.429,0.862  c0.709,1.185,0.322,2.72-0.862,3.429L71.605,83.719C71.203,83.959,70.76,84.074,70.324,84.074z" data-original="#000000" class="active-path" data-old_color="#3ac6ea" fill="#3ac6ea"/></g> </svg>
